<?xml version="1.0" encoding="UTF-8"?>
<svg width="24" height="24" viewBox="0 0 24 24" fill="none" xmlns="http://www.w3.org/2000/svg">
  <path d="M12 12C14.21 12 16 10.21 16 8C16 5.79 14.21 4 12 4C9.79 4 8 5.79 8 8C8 10.21 9.79 12 12 12ZM12 14C9.33 14 4 15.34 4 18V20H20V18C20 15.34 14.67 14 12 14Z" fill="currentColor"/>
  <path d="M16.04 8.6C16.65 9.11 17 9.8 17 10.5C17 11.88 15.88 13 14.5 13H9.5C8.12 13 7 11.88 7 10.5C7 9.8 7.35 9.11 7.96 8.6C8.56 9.63 10.15 10.5 12 10.5C13.85 10.5 15.44 9.63 16.04 8.6Z" fill="currentColor"/>
</svg>
