<?xml version="1.0" encoding="UTF-8" standalone="no"?>
<svg
   width="750"
   height="267.06277"
   viewBox="0 0 57.8268 20.591181"
   version="1.1"
   id="svg194"
   sodipodi:docname="optic-2000.svg"
   inkscape:version="1.2 (dc2aeda, 2022-05-15)"
   xmlns:inkscape="http://www.inkscape.org/namespaces/inkscape"
   xmlns:sodipodi="http://sodipodi.sourceforge.net/DTD/sodipodi-0.dtd"
   xmlns="http://www.w3.org/2000/svg"
   xmlns:svg="http://www.w3.org/2000/svg">
  <defs
     id="defs198" />
  <sodipodi:namedview
     id="namedview196"
     pagecolor="#ffffff"
     bordercolor="#666666"
     borderopacity="1.0"
     inkscape:showpageshadow="2"
     inkscape:pageopacity="0.0"
     inkscape:pagecheckerboard="0"
     inkscape:deskcolor="#d1d1d1"
     showgrid="false"
     inkscape:zoom="0.7552"
     inkscape:cx="193.32627"
     inkscape:cy="284.6928"
     inkscape:window-width="1920"
     inkscape:window-height="1080"
     inkscape:window-x="0"
     inkscape:window-y="0"
     inkscape:window-maximized="0"
     inkscape:current-layer="svg194" />
  <path
     style="clip-rule:evenodd;fill-rule:evenodd;stroke-width:0.329032"
     d="M 0,0 H 57.8268 V 20.591182 H 0 Z"
     id="path464" />
  <g
     id="g1000">
    <path
       id="path642"
       style="clip-rule:evenodd;fill:#ecb731;fill-rule:evenodd;stroke-width:0.284694;fill-opacity:1"
       d="M 12.170433 6.8491628 C 10.868243 7.0594379 9.705867 8.105829 9.705867 9.6989398 C 9.705867 11.323649 10.891957 12.369502 12.210189 12.563475 A 4.3944125 4.3944125 0 0 0 13.246253 9.7296603 A 4.3944125 4.3944125 0 0 0 12.170433 6.8491628 z " />
    <path
       id="circle640"
       style="fill:#949ccc;stroke-width:0.111367;stroke-linejoin:bevel;fill-opacity:1"
       d="M 8.8518676 5.3352753 A 4.3944125 4.3944125 0 0 0 4.4573319 9.7296603 A 4.3944125 4.3944125 0 0 0 8.8518676 14.124045 A 4.3944125 4.3944125 0 0 0 12.210189 12.563475 C 10.891957 12.369502 9.705867 11.323649 9.705867 9.6989398 C 9.705867 8.105829 10.868243 7.0594379 12.170433 6.8491628 A 4.3944125 4.3944125 0 0 0 8.8518676 5.3352753 z " />
  </g>
  <g
     id="g1029">
    <path
       id="path450"
       style="clip-rule:evenodd;fill-rule:evenodd;stroke-width:0.329032;fill:#ffffff"
       d="M 50.948724 8.2455897 C 49.587189 8.2455897 48.517438 9.2240773 48.517438 10.646155 C 48.517438 12.058031 49.58686 13.036932 50.948724 13.036932 C 52.310589 13.036932 53.369468 12.058031 53.369468 10.646155 C 53.369468 9.2240773 52.310259 8.2455897 50.948724 8.2455897 z M 50.948724 9.0523037 C 51.74564 9.0526327 52.441529 9.6880128 52.441529 10.646155 C 52.441529 11.594425 51.74564 12.229465 50.948724 12.229465 C 50.141608 12.229465 49.445679 11.594096 49.445679 10.646155 C 49.445679 9.6880128 50.141608 9.0523037 50.948724 9.0523037 z " />
    <path
       style="clip-rule:evenodd;fill-rule:evenodd;stroke-width:0.329032;fill:#ffffff"
       d="m 37.114535,12.127479 v 0.798891 h -3.851984 v -0.227361 c 0.512304,-0.540601 2.618112,-2.711228 2.618112,-3.923055 0,-0.696232 -0.438272,-1.022962 -1.005194,-1.022962 -0.494865,0 -0.841995,0.181297 -1.243414,0.44551 L 33.437268,7.378224 c 0.446497,-0.290864 0.900232,-0.44189 1.438201,-0.44189 1.109168,0 1.930433,0.651155 1.930433,1.86693 0,1.092717 -1.262169,2.637195 -1.937014,3.324544 h 2.245647 z"
       id="path454" />
    <path
       id="path446"
       style="clip-rule:evenodd;fill-rule:evenodd;stroke-width:0.329032;fill:#ffffff"
       d="M 45.521588 8.2455897 C 44.160054 8.2455897 43.090453 9.2240773 43.090453 10.646155 C 43.090453 12.058031 44.159725 13.036932 45.521588 13.036932 C 46.883453 13.036932 47.94173 12.058031 47.94173 10.646155 C 47.94173 9.2240773 46.883124 8.2455897 45.521588 8.2455897 z M 45.521588 9.0523037 C 46.318176 9.0526327 47.014393 9.6880128 47.014393 10.646155 C 47.014393 11.594425 46.318505 12.229465 45.521588 12.229465 C 44.714473 12.229465 44.018694 11.594096 44.018694 10.646155 C 44.018694 9.6880128 44.714473 9.0523037 45.521588 9.0523037 z " />
    <path
       id="path442"
       style="clip-rule:evenodd;fill-rule:evenodd;stroke-width:0.329032;fill:#ffffff"
       d="M 40.09385 8.2455897 C 38.732644 8.2455897 37.663318 9.2240773 37.663318 10.646155 C 37.663318 12.058031 38.732644 13.036932 40.09385 13.036932 C 41.455385 13.036932 42.514595 12.058031 42.514595 10.646155 C 42.514595 9.2240773 41.455385 8.2455897 40.09385 8.2455897 z M 40.09385 9.0523037 C 40.890437 9.0526327 41.586806 9.6880128 41.586806 10.646155 C 41.586806 11.594425 40.890766 12.229465 40.09385 12.229465 C 39.287392 12.229465 38.591558 11.594096 38.591558 10.646155 C 38.591558 9.6880128 39.287392 9.0523037 40.09385 9.0523037 z " />
    <path
       style="clip-rule:evenodd;fill-rule:evenodd;stroke-width:0.329032;fill:#ffffff"
       d="m 31.658518,8.588406 c -0.383652,-0.211897 -0.85713,-0.342852 -1.462549,-0.342852 -1.250653,0 -2.481563,0.897601 -2.481563,2.400621 0,1.49282 1.230581,2.39075 2.481563,2.39075 0.453735,0 0.867658,-0.08094 1.20031,-0.231968 l 0.191497,-0.89793 c -0.513949,0.241839 -0.887401,0.322452 -1.311523,0.322452 -0.83673,0 -1.633647,-0.605091 -1.633647,-1.583304 0,-0.988414 0.776517,-1.593833 1.613905,-1.593833 0.444193,0 0.817316,0.08094 1.230581,0.342851 z"
       id="path440" />
    <path
       style="clip-rule:evenodd;fill-rule:evenodd;stroke-width:0.329032;fill:#ffffff"
       d="M 26.851024,12.925712 V 8.356438 h -0.927871 v 4.569274 z"
       id="path438" />
    <path
       style="clip-rule:evenodd;fill-rule:evenodd;stroke-width:0.329032;fill:#ffffff"
       d="m 26.952037,6.924159 c 0,-0.191825 -0.373122,-0.564619 -0.564948,-0.564619 -0.181626,0 -0.554749,0.373123 -0.554749,0.564619 0,0.181626 0.373123,0.554749 0.554749,0.554749 0.191497,0 0.564948,-0.373123 0.564948,-0.554749 z"
       id="path436" />
    <path
       style="clip-rule:evenodd;fill-rule:evenodd;stroke-width:0.329032;fill:#ffffff"
       d="M 25.069643,8.356438 H 23.455738 V 6.95443 l -0.9078,0.473807 v 0.927872 h -0.89793 v 0.736375 h 0.89793 v 2.511504 c 0,0.907801 0.665632,1.391808 1.49282,1.391808 0.181626,0 0.31291,-0.0099 0.413594,-0.04047 l 0.181297,-0.816659 c -0.141155,0.05034 -0.312581,0.07041 -0.504078,0.07041 -0.373123,0 -0.675833,-0.201368 -0.675833,-0.57482 V 9.092482 h 1.452679 z"
       id="path434" />
    <path
       id="path190"
       style="clip-rule:evenodd;fill-rule:evenodd;stroke-width:0.329032;fill:#ffffff"
       d="M 19.003332 8.2455897 C 18.378171 8.2455897 17.873403 8.4169393 17.591093 8.719649 L 17.560825 8.3564244 L 16.774139 8.3564244 L 16.774139 15.255884 L 17.69214 15.255884 L 17.69214 12.734244 C 17.924107 12.885599 18.337631 13.036932 18.831508 13.036932 C 20.193372 13.036932 21.242616 12.048449 21.242615 10.635915 C 21.242615 9.0526123 19.981873 8.2455897 19.003332 8.2455897 z M 18.831809 9.0526049 C 19.648797 9.0526049 20.314525 9.6879726 20.314525 10.635915 C 20.314525 11.594385 19.648797 12.229766 18.831809 12.229766 C 18.347803 12.229766 17.93428 12.038273 17.692441 11.806305 L 17.692441 9.5165746 C 17.93428 9.2441358 18.337932 9.0526049 18.831809 9.0526049 z " />
    <path
       id="path456"
       style="clip-rule:evenodd;fill-rule:evenodd;stroke-width:0.329032;fill:#ffffff"
       d="M 12.655937 6.3595927 C 10.941022 6.3595927 9.246415 7.6302199 9.246415 9.6981869 C 9.246415 11.785896 10.941022 13.046871 12.655937 13.046871 C 14.370524 13.046871 16.065309 11.785896 16.065309 9.6981869 C 16.065309 7.6302199 14.370854 6.3595927 12.655937 6.3595927 z M 12.655937 7.2068156 C 13.825647 7.2068156 15.076531 8.1043555 15.076531 9.6981869 C 15.076531 11.29169 13.825647 12.199497 12.655937 12.199497 C 11.4655 12.199497 10.235193 11.29169 10.235193 9.6981869 C 10.235193 8.1043555 11.465829 7.2068156 12.655937 7.2068156 z " />
  </g>
</svg>
